<svg xmlns="http://www.w3.org/2000/svg" width="20" height="20" viewBox="0 0 20 20">
  <g id="burger_2_" data-name="burger (2)" transform="translate(-17.5 -33)">
    <path id="Path_5724" data-name="Path 5724" d="M37.011,40.872H19.351a.851.851,0,0,1-.851-.851A7.029,7.029,0,0,1,25.521,33H30.84a7.029,7.029,0,0,1,7.021,7.021A.851.851,0,0,1,37.011,40.872Z" transform="translate(-0.787)" fill="#ffdc48"/>
    <path id="Path_5725" data-name="Path 5725" d="M36.649,76.7h-18.3a.851.851,0,1,1,0-1.7h18.3a.851.851,0,1,1,0,1.7Zm0,3.4a3.539,3.539,0,0,1-1.94-.533,2.1,2.1,0,0,0-2.219,0,3.792,3.792,0,0,1-3.879,0,2.1,2.1,0,0,0-2.219,0,3.794,3.794,0,0,1-3.879,0,2.1,2.1,0,0,0-2.221,0,3.542,3.542,0,0,1-1.94.533.851.851,0,1,1,0-1.7,1.9,1.9,0,0,0,1.111-.318,3.795,3.795,0,0,1,3.88,0,2.1,2.1,0,0,0,2.22,0,3.792,3.792,0,0,1,3.879,0,2.1,2.1,0,0,0,2.219,0,3.792,3.792,0,0,1,3.879,0,1.894,1.894,0,0,0,1.11.318.851.851,0,1,1,0,1.7Z" transform="translate(0 -33.064)" fill="#aa9229"/>
    <path id="Path_5726" data-name="Path 5726" d="M33.606,108.106H22.755a4.26,4.26,0,0,1-4.255-4.255.851.851,0,0,1,.851-.851h17.66a.851.851,0,0,1,.851.851A4.26,4.26,0,0,1,33.606,108.106Z" transform="translate(-0.787 -55.106)" fill="#ffdc48"/>
  </g>
</svg>
