<svg id="airplane-mode" xmlns="http://www.w3.org/2000/svg" width="22" height="22" viewBox="0 0 22 22">
  <path id="Path_5727" data-name="Path 5727" d="M14.278,23.2c-.035,0-.071,0-.107,0a1.373,1.373,0,0,1-1-.56L12.1,21.178,10.56,20.044a1.376,1.376,0,0,1-.158-2.08,1.406,1.406,0,0,1,1.567-.3l.858.375,1.858-2-3.734-1.976A1.425,1.425,0,0,1,10.236,13a1.406,1.406,0,0,1,.4-1.172,1.3,1.3,0,0,1,1.207-.353l5.856,1.24,2.035-2.163A1.989,1.989,0,0,1,21.164,10h.04a2.06,2.06,0,0,1,1.462.532,2.075,2.075,0,0,1,.533,1.5,2,2,0,0,1-.553,1.427h0l-2.167,2.043,1.347,5.925a1.3,1.3,0,0,1-.348,1.221,1.416,1.416,0,0,1-2.208-.258l-2.1-3.883-2,1.859.376.86a1.406,1.406,0,0,1-.3,1.566A1.373,1.373,0,0,1,14.278,23.2Zm5.832-1.379a.016.016,0,0,1,0,.006Zm.231-6.185,0,0Zm.093-.327,0,.007ZM11.476,13.2h0Zm6.1-.34,0,0Zm.312-.1h0Z" transform="translate(-1.2 -1.2)" fill="#fc573b"/>
  <path id="Path_5728" data-name="Path 5728" d="M9.135,21.847a11,11,0,1,1,12-15.144l-1.619.692A9.245,9.245,0,1,0,9.433,20.111Z" fill="#fd907e"/>
  <path id="Path_5729" data-name="Path 5729" d="M7.009,17.323A19.119,19.119,0,0,1,6,11C6,4.832,8.512,0,11.72,0c2.917,0,5.3,4,5.665,9.507l-1.756.117C15.307,4.767,13.35,1.76,11.72,1.76,9.846,1.76,7.76,5.554,7.76,11a17.321,17.321,0,0,0,.908,5.733Z" transform="translate(-0.72)" fill="#fd907e"/>
  <rect id="Rectangle_986" data-name="Rectangle 986" width="1.76" height="7.673" transform="translate(10.12 0.88)" fill="#fd907e"/>
  <rect id="Rectangle_987" data-name="Rectangle 987" width="6.442" height="1.76" transform="translate(0.88 10.12)" fill="#fd907e"/>
</svg>
