<svg xmlns="http://www.w3.org/2000/svg" width="23.5" height="15.5" viewBox="0 0 23.5 15.5">
  <g id="drone" transform="translate(-0.25 -4.25)">
    <path id="Path_5730" data-name="Path 5730" d="M17.25,7.5A.75.75,0,0,1,18,6.75h3a.75.75,0,0,1,0,1.5H18A.75.75,0,0,1,17.25,7.5Zm-10.5,0A.75.75,0,0,0,6,6.75H3a.75.75,0,0,0,0,1.5H6A.75.75,0,0,0,6.75,7.5Z" fill="#4642ff"/>
    <path id="Path_5731" data-name="Path 5731" d="M21,4.25a.75.75,0,0,1,.75.75V9a.75.75,0,0,1-1.5,0V5A.75.75,0,0,1,21,4.25Zm-9,7a.75.75,0,0,1,.75.75v2a.75.75,0,0,1-1.5,0V12A.75.75,0,0,1,12,11.25Zm-9-7A.75.75,0,0,0,2.25,5V9a.75.75,0,0,0,1.5,0V5A.75.75,0,0,0,3,4.25Zm12.329,7.415a.75.75,0,0,1,1.006-.335l4,2A.75.75,0,0,1,20.75,14v5a.75.75,0,0,1-1.5,0V14.464l-3.585-1.793A.75.75,0,0,1,15.329,11.665Zm-6.658,0a.75.75,0,0,0-1.006-.335l-4,2A.75.75,0,0,0,3.25,14v5a.75.75,0,0,0,1.5,0V14.464l3.585-1.793A.75.75,0,0,0,8.671,11.665Z" fill="#4e8ff6"/>
    <path id="Path_5732" data-name="Path 5732" d="M12,14.75A1.25,1.25,0,1,0,13.25,16,1.25,1.25,0,0,0,12,14.75ZM9.25,16A2.75,2.75,0,1,1,12,18.75,2.75,2.75,0,0,1,9.25,16Z" fill="#4642ff"/>
    <path id="Path_5733" data-name="Path 5733" d="M9.25,4.25H9a.75.75,0,0,0-.48.174l-3,2.5a.75.75,0,0,0-.205.881l2,4.5A.75.75,0,0,0,8,12.75h8a.75.75,0,0,0,.685-.445l2-4.5a.75.75,0,0,0-.205-.881l-3-2.5A.75.75,0,0,0,15,4.25h-.25V5.714a.751.751,0,0,1-.028.2l-.5,1.786a.75.75,0,0,1-.722.548h-3A.75.75,0,0,1,9.778,7.7l-.5-1.786a.75.75,0,0,1-.028-.2Zm1.5,0h2.5V5.611L12.931,6.75H11.069L10.75,5.611Z" fill="#4e8ff6" opacity="0.5"/>
    <path id="Path_5734" data-name="Path 5734" d="M9.25,4.25h5.5V5.714a.751.751,0,0,1-.028.2l-.5,1.786a.75.75,0,0,1-.722.548h-3A.75.75,0,0,1,9.778,7.7l-.5-1.786a.75.75,0,0,1-.028-.2Zm3.961,1.5H10.789l.28,1h1.862ZM18.25,5A.75.75,0,0,1,19,4.25h4a.75.75,0,0,1,0,1.5H19A.75.75,0,0,1,18.25,5ZM5.75,5A.75.75,0,0,0,5,4.25H1a.75.75,0,0,0,0,1.5H5A.75.75,0,0,0,5.75,5Z" fill="#4642ff"/>
    <path id="Path_5735" data-name="Path 5735" d="M8.52,4.424A.75.75,0,0,1,9,4.25h6a.75.75,0,0,1,.48.174l3,2.5a.75.75,0,0,1,.205.881l-2,4.5A.75.75,0,0,1,16,12.75H8a.75.75,0,0,1-.685-.445l-2-4.5a.75.75,0,0,1,.205-.881ZM9.272,5.75,6.916,7.713,8.487,11.25h7.025l1.572-3.537L14.729,5.75Z" fill="#4e8ff6"/>
    <path id="Path_5736" data-name="Path 5736" d="M9.25,5A.75.75,0,0,1,10,4.25h4a.75.75,0,0,1,.75.75v.714a.747.747,0,0,1-.028.2l-.5,1.786a.75.75,0,0,1-.722.548h-3A.75.75,0,0,1,9.778,7.7l-.5-1.786a.75.75,0,0,1-.028-.2Zm3.961.75H10.789l.28,1h1.862ZM17.25,7.5A.75.75,0,0,1,18,6.75h3a.75.75,0,0,1,0,1.5H18A.75.75,0,0,1,17.25,7.5Zm-10.5,0A.75.75,0,0,0,6,6.75H3a.75.75,0,0,0,0,1.5H6A.75.75,0,0,0,6.75,7.5ZM18.25,5A.75.75,0,0,1,19,4.25h4a.75.75,0,0,1,0,1.5H19A.75.75,0,0,1,18.25,5ZM5.75,5A.75.75,0,0,0,5,4.25H1a.75.75,0,0,0,0,1.5H5A.75.75,0,0,0,5.75,5Z" fill="#4e8ff6"/>
    <path id="Path_5738" data-name="Path 5738" d="M12,14.75A1.25,1.25,0,1,0,13.25,16,1.25,1.25,0,0,0,12,14.75ZM9.25,16A2.75,2.75,0,1,1,12,18.75,2.75,2.75,0,0,1,9.25,16Z" fill="#4e8ff6"/>
  </g>
</svg>
