<svg xmlns="http://www.w3.org/2000/svg" width="20.997" height="15.95" viewBox="0 0 20.997 15.95">
  <g id="mortarboard" transform="translate(-1.003 -4.55)">
    <path id="Path_5721" data-name="Path 5721" d="M15,20.5H7a2.946,2.946,0,0,1-3-3V12.2a.945.945,0,0,1,1-1H17a.945.945,0,0,1,1,1v5.3A2.946,2.946,0,0,1,15,20.5Z" fill="#b7ccd5"/>
    <path id="Path_5722" data-name="Path 5722" d="M21.5,10.2l-1-.5h0l-9-5a.908.908,0,0,0-1,0l-9,5A.955.955,0,0,0,1.1,11a.781.781,0,0,0,.4.4l9,5a.908.908,0,0,0,1,0L20,11.7v2.9a1,1,0,0,0,2,0V11.2A1.1,1.1,0,0,0,21.5,10.2Z" fill="#153441"/>
  </g>
</svg>
