<svg xmlns="http://www.w3.org/2000/svg" width="17.503" height="20" viewBox="0 0 17.503 20">
  <g id="healthcare_1_" data-name="healthcare (1)" transform="translate(-3.997 -0.003)">
    <path id="Path_5749" data-name="Path 5749" d="M9.623,34.563v4.688H5.873V36.235L4.692,34.757a.315.315,0,0,1-.069-.163L4,28.344a.324.324,0,0,1,.081-.241A.313.313,0,0,1,4.31,28h.625a.323.323,0,0,1,.222.091l.625.625a.317.317,0,0,1,.084.159l.5,2.485-.419.5a.315.315,0,0,0-.038.341l1.25,2.5a.307.307,0,0,0,.278.172.292.292,0,0,0,.141-.034.31.31,0,0,0,.138-.419L6.557,32.106l.3-.356h.581a.317.317,0,0,1,.25.125l1.875,2.5A.308.308,0,0,1,9.623,34.563Zm6.25,0v4.688h3.75V36.235L20.8,34.757a.315.315,0,0,0,.069-.163l.625-6.25a.324.324,0,0,0-.081-.241.313.313,0,0,0-.231-.1h-.625a.323.323,0,0,0-.222.091l-.625.625a.317.317,0,0,0-.084.159l-.5,2.485.419.5a.315.315,0,0,1,.038.341l-1.25,2.5a.307.307,0,0,1-.278.172.292.292,0,0,1-.141-.034.31.31,0,0,1-.138-.419l1.156-2.316-.3-.356h-.581a.317.317,0,0,0-.25.125l-1.875,2.5A.308.308,0,0,0,15.873,34.563Z" transform="translate(0 -19.247)" fill="#9de8c6"/>
    <path id="Path_5750" data-name="Path 5750" d="M22.7,2.8a4.63,4.63,0,0,0-3.21-2.71A4.758,4.758,0,0,0,15.5,1.69,4.774,4.774,0,0,0,11.51.049a4.6,4.6,0,0,0-3.21,2.8C7.122,5.611,9.4,9.156,15.274,13.687a.314.314,0,0,0,.384,0C21.575,9.121,23.879,5.558,22.7,2.8ZM18.628,7.815a.313.313,0,0,1-.313.313H16.753V9.69A.313.313,0,0,1,16.44,10H14.565a.313.313,0,0,1-.313-.313V8.128H12.688a.313.313,0,0,1-.313-.313V5.94a.313.313,0,0,1,.313-.313H14.25V4.065a.313.313,0,0,1,.313-.313h1.875a.313.313,0,0,1,.313.313V5.628h1.563a.313.313,0,0,1,.313.313Z" transform="translate(-2.752 0)" fill="#4ed598"/>
  </g>
</svg>
